<svg width="1920" height="1080" viewBox="0 0 1920 1080" fill="none" xmlns="http://www.w3.org/2000/svg">
<g clip-path="url(#clip0_627_745)">
<rect width="1920" height="1080" fill="#D2FDBB"/>
<path d="M1062.05 250.789C1060.49 274.344 1070.09 328.381 1121.03 356.085C1184.7 390.715 1234.82 463.247 1189.67 658.658C1144.51 854.069 1246.32 897.858 1414.31 823.202C1544.25 765.452 1735.8 776.179 1766.83 1003.27C1791.66 1184.94 1955.21 1198.07 2033.88 1181.93" stroke="#17C57E" stroke-width="20"/>
<path d="M1217.49 344.855C1215.93 368.411 1225.53 422.447 1276.47 450.151C1340.14 484.781 1390.26 557.314 1345.11 752.725C1299.96 948.135 1401.77 991.924 1569.75 917.268C1699.69 859.518 1891.24 870.245 1922.27 1097.33C1947.1 1279.01 2110.65 1292.14 2189.32 1275.99" stroke="#17C57E" stroke-width="20"/>
<path d="M1405.32 455.594C1403.76 479.149 1413.36 533.185 1464.3 560.89C1527.97 595.52 1578.09 668.052 1532.94 863.463C1487.78 1058.87 1589.59 1102.66 1757.58 1028.01C1887.52 970.257 2079.07 980.983 2110.1 1208.07C2134.93 1389.74 2298.48 1402.87 2377.15 1386.73" stroke="#17C57E" stroke-width="20"/>
</g>
<defs>
<clipPath id="clip0_627_745">
<rect width="1920" height="1080" fill="white"/>
</clipPath>
</defs>
</svg>
